<svg xmlns="http://www.w3.org/2000/svg" aria-hidden="true" style="position:absolute;width:0;height:0;overflow:hidden"><defs>

<symbol id="icon-home" viewBox="0 0 96 32"><path d="M8.461.711v.135L7.9.981v5.98l.56.135v.135H5.803v-.135l.561-.135V1.863l-2.201 5.46h-.28l-2.856-5.46v4.952l.748.28v.135H0v-.135l.748-.28V.981L.187.846V.711H1.35c.176 0 .332.02.457.062.246.074.453.219.6.412l.002.003c.073.094.135.208.196.322l2.036 3.893L6.197 1.51c.046-.131.106-.244.18-.346l-.003.004c.062-.094.145-.177.239-.249s.207-.124.343-.156c.135-.031.301-.052.509-.052h.996zm3.322 1.733c.384 0 .737.052 1.038.167s.561.28.779.487c.218.218.374.478.488.779s.166.655.166 1.039c0 .384-.052.737-.166 1.038s-.281.561-.488.779l.001-.001c-.218.218-.479.375-.78.489s-.654.166-1.038.166-.737-.052-1.038-.166a2.312 2.312 0 0 1-.78-.489l.001.001a2.144 2.144 0 0 1-.487-.778c-.115-.302-.167-.655-.167-1.039s.052-.737.167-1.039a2.32 2.32 0 0 1 .488-.779l-.001.001a2.16 2.16 0 0 1 .778-.488 2.915 2.915 0 0 1 1.039-.167zm0 4.765a.581.581 0 0 0 .323-.105l-.002.001c.104-.073.198-.187.281-.364s.156-.405.207-.695c.053-.318.084-.684.084-1.057v-.068.003c0-.457-.031-.831-.084-1.121-.051-.291-.124-.529-.207-.695s-.177-.291-.281-.364a.533.533 0 0 0-.318-.103h-.004a.582.582 0 0 0-.324.105l.002-.001a.899.899 0 0 0-.28.364 2.705 2.705 0 0 0-.205.679l-.002.016a6.555 6.555 0 0 0-.084 1.057v.068-.003c0 .457.031.831.084 1.121s.124.529.207.695a.973.973 0 0 0 .28.364.614.614 0 0 0 .321.103h.001zM18.79.711c.56 0 .841.28.841.841v5.419l.561.135v.135h-.841c-.228 0-.405-.031-.54-.104a1.192 1.192 0 0 1-.322-.238 1.02 1.02 0 0 1-.205-.345l-.002-.007a1.617 1.617 0 0 1-.312.425c-.123.113-.263.21-.415.286l-.01.005a1.319 1.319 0 0 1-.623.135c-.269 0-.519-.052-.747-.156a1.562 1.562 0 0 1-.6-.464l-.003-.003a2.34 2.34 0 0 1-.401-.751l-.005-.017c-.104-.312-.145-.665-.145-1.08s.052-.768.145-1.08a2.13 2.13 0 0 1 .425-.768c.177-.207.395-.364.644-.467.239-.099.516-.156.807-.156h.036-.002c.166 0 .311.02.446.052.135.041.249.083.343.135.114.052.208.114.291.187V1.012l-.56-.135V.742h1.193v-.03zm-.655 2.387c-.073-.073-.135-.135-.218-.187a1.593 1.593 0 0 0-.218-.131l-.01-.004a.548.548 0 0 0-.235-.052l-.026.001h.001a.635.635 0 0 0-.335.095l.003-.002c-.104.063-.187.167-.269.322a2.517 2.517 0 0 0-.177.664 8.144 8.144 0 0 0-.062 1.111c0 .447.02.799.062 1.079s.094.498.167.655c.062.156.135.269.228.321.07.048.155.079.248.083h.001c.145 0 .27-.041.374-.114s.187-.166.26-.26a2.21 2.21 0 0 0 .218-.373V3.098h-.01zm5.181 4.298c-.799 0-1.422-.218-1.858-.655-.446-.436-.664-1.048-.664-1.817 0-.384.052-.737.166-1.038s.27-.56.468-.778c.196-.218.436-.375.727-.489.263-.105.569-.166.888-.166h.049-.002c.353 0 .664.052.934.145.281.104.509.239.705.405a1.72 1.72 0 0 1 .603 1.318c0 .083 0 .166-.01.228l-.031.177c-.021.063-.031.114-.052.156a9.49 9.49 0 0 1-.872.135 9.31 9.31 0 0 1-.903.093c-.313.023-.686.038-1.062.041h-.007c0 .385.031.706.083.966s.135.467.228.612c.104.156.218.26.353.322s.291.093.447.093c.186 0 .364-.031.529-.104.316-.128.566-.362.713-.656l.004-.008a.968.968 0 0 0 .104-.447h.228c0 .187-.041.364-.124.54a1.43 1.43 0 0 1-.362.466l-.002.002a1.827 1.827 0 0 1-.547.317l-.013.004a1.725 1.725 0 0 1-.717.135zm-.933-2.481c.207 0 .394 0 .56-.01s.302-.021.416-.031c.135-.01.239-.031.332-.041.011-.063.031-.135.042-.208s.02-.145.031-.228c.011-.083.011-.176.011-.269 0-.281-.021-.52-.063-.706a1.603 1.603 0 0 0-.171-.476l.004.008c-.062-.114-.135-.207-.228-.249s-.166-.073-.249-.073a.413.413 0 0 0-.25.094l.001-.001c-.083.063-.156.177-.228.332a3.097 3.097 0 0 0-.164.679l-.002.016c-.041.301-.041.685-.041 1.164zm6.873-2.149c-.188 0-.353.041-.499.114s-.269.166-.374.26a2.728 2.728 0 0 0-.295.364l-.006.009V6.97l.561.135v.135h-2.616v-.135l.56-.135V2.859l-.56-.135v-.135h.841c.218 0 .395.041.54.114.135.073.249.156.332.239a.965.965 0 0 1 .208.343c.093-.135.207-.26.342-.374.115-.094.26-.177.436-.26s.374-.114.613-.114c.332 0 .582.083.747.228.167.156.239.374.239.655a.7.7 0 0 1-.187.508c-.124.124-.301.186-.509.186h-.145c-.051 0-.083-.01-.114-.01-.041-.01-.083-.01-.114-.031V2.765zm5.086 1.214c0-.207-.02-.394-.062-.55a1.034 1.034 0 0 0-.168-.377l.002.003a.518.518 0 0 0-.225-.217l-.003-.001a.566.566 0 0 0-.248-.073h-.001c-.145 0-.27.041-.374.114s-.196.166-.26.26a2.139 2.139 0 0 0-.207.374V6.97l.56.135v.135h-2.615v-.135l.56-.135V2.859l-.56-.135v-.135h.841c.218 0 .394.041.54.114.135.073.249.156.332.239a.972.972 0 0 1 .207.342 1.83 1.83 0 0 1 .312-.426c.103-.103.249-.196.415-.291.167-.093.385-.135.633-.135.27 0 .519.041.737.135a1.704 1.704 0 0 1 .945.831c.094.187.135.374.135.571v2.989l.561.135v.135h-1.215c-.56 0-.841-.28-.841-.841V3.978zM.985 13.801v-.384H8.2v.384l-1.516.384v7.838h5.44v-7.838l-1.516-.384v-.384h7.215v.384l-1.515.384V30.38l1.516.384v.385h-7.215v-.395l1.516-.384v-7.713h-5.44v7.714l1.516.384v.384H.986v-.384l1.516-.384V14.175l-1.516-.374zm25.809 4.298c1.049 0 1.983.156 2.814.457a5.695 5.695 0 0 1 2.108 1.329c.581.581 1.028 1.287 1.329 2.118s.457 1.764.457 2.813-.156 1.983-.457 2.813a5.684 5.684 0 0 1-1.33 2.108 5.732 5.732 0 0 1-2.107 1.329c-.831.301-1.765.457-2.814.457s-1.983-.156-2.813-.457a5.695 5.695 0 0 1-2.108-1.329 5.736 5.736 0 0 1-1.329-2.108c-.301-.831-.457-1.764-.457-2.813s.156-1.983.457-2.814a5.82 5.82 0 0 1 1.329-2.119l-.001.001c.582-.591 1.287-1.028 2.108-1.329.831-.301 1.765-.457 2.813-.457zm0 12.905c.291 0 .572-.094.862-.281s.54-.509.768-.976c.229-.467.416-1.1.561-1.9s.218-1.817.218-3.052-.073-2.252-.218-3.052-.332-1.433-.56-1.9c-.229-.467-.488-.788-.769-.975s-.571-.281-.862-.281-.571.094-.861.281c-.291.186-.54.508-.769.975s-.415 1.101-.56 1.9-.218 1.817-.218 3.052c0 1.236.073 2.253.218 3.052s.332 1.433.56 1.9c.228.468.488.789.769.976.291.187.571.281.861.281zm25.674-8.731c0-.602-.052-1.121-.156-1.527s-.228-.747-.394-1.007a1.906 1.906 0 0 0-.529-.571c-.198-.114-.384-.177-.571-.177-.322 0-.602.104-.851.311a4.034 4.034 0 0 0-.636.685l-.008.011c-.193.289-.371.62-.515.968l-.014.038v9.365l1.527.384v.384H43.24v-.384l1.516-.384v-8.098c0-.602-.052-1.121-.156-1.527s-.228-.747-.394-1.007a1.906 1.906 0 0 0-.529-.571 1.141 1.141 0 0 0-.571-.177c-.322 0-.602.104-.851.311a4.034 4.034 0 0 0-.636.685l-.008.011c-.199.29-.377.621-.517.972l-.012.035v9.365l1.516.384v.384h-7.08v-.384l1.516-.384V19.239l-1.516-.385v-.384h2.273c.592 0 1.08.104 1.453.301.385.197.675.426.903.655.249.291.436.602.561.934.218-.425.488-.799.81-1.142.291-.291.644-.55 1.059-.789.425-.239.934-.353 1.547-.353 1.007 0 1.889.228 2.616.675a4.562 4.562 0 0 1 1.681 1.734c.218-.436.488-.831.81-1.194a5.158 5.158 0 0 1 1.059-.831c.425-.249.934-.384 1.547-.384.695 0 1.318.114 1.9.332a4.553 4.553 0 0 1 1.484.903c.401.366.727.808.955 1.304l.01.025c.228.509.342 1.048.342 1.619v8.098l1.516.384v.384h-3.291c-1.516 0-2.273-.758-2.273-2.273V22.27h-.011zm13.921 9.239c-2.159 0-3.841-.592-5.035-1.785s-1.796-2.824-1.796-4.921c0-1.049.156-1.983.457-2.814a6.281 6.281 0 0 1 1.271-2.123l-.005.005a5.274 5.274 0 0 1 1.926-1.316l.036-.012a6.842 6.842 0 0 1 2.513-.457c.944 0 1.796.135 2.543.405s1.391.633 1.91 1.09a4.81 4.81 0 0 1 1.192 1.579l.012.029c.262.565.415 1.226.415 1.922v.042-.002c0 .239-.01.447-.041.623s-.052.332-.094.468c-.051.166-.093.311-.124.425-.598.133-1.4.268-2.213.369l-.144.015c-.705.104-1.527.187-2.45.27-.924.073-1.9.114-2.907.114 0 1.049.073 1.921.228 2.617s.364 1.256.633 1.671c.27.415.592.705.966.882s.778.27 1.215.27c.509 0 .986-.093 1.433-.28.449-.188.834-.44 1.164-.75l-.002.002c.318-.298.582-.648.779-1.038l.01-.021a2.67 2.67 0 0 0 .291-1.204h.633c0 .509-.113.996-.342 1.464a3.802 3.802 0 0 1-.97 1.251l-.006.005a4.907 4.907 0 0 1-1.516.873 5.826 5.826 0 0 1-1.983.332zm-2.533-6.706c.571 0 1.08-.011 1.516-.041s.81-.052 1.111-.084c.353-.031.654-.073.913-.124.031-.167.073-.353.124-.561.031-.187.063-.394.083-.623s.042-.467.042-.716c0-.758-.063-1.391-.177-1.911s-.27-.934-.447-1.256c-.177-.321-.384-.55-.602-.685-.228-.135-.457-.207-.675-.207s-.447.083-.675.239c-.228.166-.425.467-.602.913s-.321 1.08-.446 1.889c-.104.809-.167 1.869-.167 3.167zm20.401 6.073V20.612l-9.073-7.184v17.451h9.073zm11.221 0V20.612l-8.928-7.184v17.451h8.928z"/></symbol>
<symbol id="icon-vg" viewBox="0 0 32 32"><path fill="#fff" d="M15.982 31.567c8.656 0 15.673-7.017 15.673-15.673S24.638.221 15.982.221C7.326.221.309 7.238.309 15.894s7.017 15.673 15.673 15.673z" style="fill:var(--color1, #fff)"/><path fill="#292f36" d="M15.982 31.789C7.219 31.789.088 24.658.088 15.895S7.219.001 15.982.001s15.894 7.131 15.894 15.894-7.131 15.894-15.894 15.894zm0-31.346C7.463.443.531 7.375.531 15.894s6.931 15.451 15.451 15.451 15.451-6.931 15.451-15.451c0-8.519-6.932-15.451-15.451-15.451z" style="fill:var(--color2, #292f36)"/><path fill="#292f36" d="M18.217 1.814c.107.009.199.013.275.013l-.009.071c-.124.018-.231.111-.315.288l-1.055 2.111-.031-.004-.027-.004-.669-2.355c-.044-.155-.12-.24-.226-.253l.009-.071c.098.018.226.031.386.049.208.018.363.031.466.031l-.009.071c-.093-.004-.16 0-.199.013s-.062.049-.067.093a.471.471 0 0 0 .027.173l.492 1.801.732-1.473a.91.91 0 0 0 .102-.288c.009-.075-.013-.133-.062-.173s-.129-.062-.235-.075l.009-.071c.129.022.266.04.408.053zm2.981.935h-.004a.126.126 0 0 0-.103.053.75.75 0 0 0-.087.172l-.002.005-.634 1.685c-.031.084-.049.151-.049.195s.013.08.044.107a.809.809 0 0 0 .169.093l-.027.067a5.104 5.104 0 0 0-.339-.143l-.087-.03a7.912 7.912 0 0 0-.439-.155l.026-.067c.084.027.146.04.186.04a.133.133 0 0 0 .106-.053.692.692 0 0 0 .089-.177l.634-1.685a.647.647 0 0 0 .049-.195v-.008a.13.13 0 0 0-.044-.098.809.809 0 0 0-.169-.093l.027-.066c.093.04.235.098.43.173.182.071.328.12.435.151l-.027.067a.498.498 0 0 0-.186-.036zm3.947 2.346a.173.173 0 0 0-.129.032.633.633 0 0 0-.142.155l-1.286 1.743-.067-.049.173-2.803-1.14 1.543a.845.845 0 0 0-.104.181l-.002.006a.16.16 0 0 0 .014.138V6.04a.584.584 0 0 0 .151.155l-.044.057a6.51 6.51 0 0 0-.276-.219l-.017-.012a3.106 3.106 0 0 0-.28-.191l.045-.058a.417.417 0 0 0 .173.08.173.173 0 0 0 .129-.032.72.72 0 0 0 .142-.155l1.047-1.419a.78.78 0 0 0 .102-.173.138.138 0 0 0-.014-.116v.001a.658.658 0 0 0-.137-.138l.044-.058c.058.053.147.124.266.208.089.067.164.12.235.16l-.142 2.35.922-1.25a.742.742 0 0 0 .107-.186.177.177 0 0 0-.013-.138v.001a.532.532 0 0 0-.151-.155l.044-.057c.067.057.164.133.293.231.115.084.208.151.28.191l-.044.057a.55.55 0 0 0-.177-.08zm1.485 2.001c.115-.085.235-.178.363-.293a51.298 51.298 0 0 0 1.185 1.668 3.883 3.883 0 0 0-.637.436l.007-.005-.049-.066c.142-.124.239-.226.297-.302s.08-.155.076-.239c-.004-.085-.058-.186-.142-.311l-.115-.16-1.681 1.197a.693.693 0 0 0-.164.151.155.155 0 0 0-.017.142v-.001c.013.049.053.12.111.208l-.057.044a7.308 7.308 0 0 0-.316-.459l.014.02a11.107 11.107 0 0 0-.319-.43l.057-.044c.067.085.12.142.164.173a.156.156 0 0 0 .139.027h-.001a.659.659 0 0 0 .195-.107l1.681-1.197-.115-.16a.706.706 0 0 0-.244-.235.315.315 0 0 0-.251-.008l.002-.001a2.45 2.45 0 0 0-.381.182l-.049-.067c.067-.035.146-.089.248-.164zm.851 6.155-.071.022a5.002 5.002 0 0 0-.116-.373 7.617 7.617 0 0 0-.18-.496l.02.057.071-.022a.64.64 0 0 0 .093.177.1.1 0 0 0 .115.022.478.478 0 0 0 .147-.093l.492-.403-.279-.829-.413-.018c-.133-.009-.235 0-.306.027s-.116.066-.133.124a.514.514 0 0 0 .027.244l-.071.022a6.246 6.246 0 0 0-.139-.447l.015.048a2.642 2.642 0 0 0-.105-.27l.007.018.071-.022c.062.107.195.164.39.169l2.359.106.018.053-1.88 1.565c-.115.111-.16.213-.133.319zm1.539-1.884-1.162-.049.262.78.9-.732zm-1.215 5.277c.044-.018.067-.04.067-.071 0-.018-.005-.031-.013-.044l-.053-.076a1.038 1.038 0 0 1-.148-.255l-.003-.007a.79.79 0 0 1-.053-.289v-.013.001a1.286 1.286 0 0 1 .142-.643c.101-.181.252-.325.433-.414l.006-.003c.191-.098.421-.146.692-.151.279-.004.523.04.732.137s.372.231.488.408c.111.167.177.372.177.592v.007c0 .098-.009.186-.027.262s-.044.142-.077.204l.002-.004a1.53 1.53 0 0 1-.124.195c-.022.031-.035.057-.035.075 0 .044.076.076.221.089v.084a12.26 12.26 0 0 0-.834 0v-.084c.125-.021.232-.047.337-.08l-.017.005a.702.702 0 0 0 .217-.115c.084-.071.155-.164.204-.28s.071-.231.071-.354a.626.626 0 0 0-.165-.417v.001a1.046 1.046 0 0 0-.448-.275 2.102 2.102 0 0 0-.674-.089c-.293.004-.528.04-.714.107s-.319.164-.408.293a.81.81 0 0 0-.124.492.668.668 0 0 0 .12.377c.031.044.057.071.089.084a.28.28 0 0 0 .115.018l.35-.004a.652.652 0 0 0 .222-.031.15.15 0 0 0 .093-.106v-.001a.753.753 0 0 0 .026-.235h.071a8.596 8.596 0 0 0 .013.892h-.071a.294.294 0 0 0-.032-.122l.001.002c-.013-.022-.044-.04-.084-.049a.81.81 0 0 0-.202-.008h.003l-.719.013v-.071c.04-.018.089-.026.133-.044zm-.527 3.774c-.129-.04-.28-.08-.452-.115.057-.155.142-.417.262-.789.142-.444.244-.781.306-1.007l.071.022a.796.796 0 0 0-.031.191.138.138 0 0 0 .057.102.684.684 0 0 0 .182.08l1.716.541c.089.027.151.04.195.04h.003c.042 0 .08-.021.103-.053a.75.75 0 0 0 .084-.173l.071.022c-.08.226-.186.559-.328 1.002-.106.337-.182.581-.217.727a3.706 3.706 0 0 0-.607-.206l-.014-.002.027-.08c.155.031.275.044.355.044h.007a.271.271 0 0 0 .192-.08.625.625 0 0 0 .138-.257l.089-.288a.526.526 0 0 0 .036-.186.137.137 0 0 0-.053-.101.59.59 0 0 0-.182-.08l-.816-.257-.071.231c-.035.115-.026.204.031.266s.12.107.191.138.115.053.133.062l-.026.08a3.611 3.611 0 0 0-.324-.115l-.164-.049a5.771 5.771 0 0 0-.449-.124l-.047-.009.026-.08c.018.005.076.013.173.036.098.018.182.009.249-.027s.111-.102.142-.195l.071-.231-.834-.262a.78.78 0 0 0-.195-.04h-.006a.113.113 0 0 0-.096.053.637.637 0 0 0-.08.177l-.08.253c-.044.146-.062.262-.044.346.013.089.057.16.133.222.076.058.191.124.346.195l-.027.08c-.053-.04-.138-.067-.244-.102zm-1.264 5.441a.146.146 0 0 0-.005-.121v.001a.625.625 0 0 0-.129-.155l-1.304-1.246a.683.683 0 0 0-.16-.12.14.14 0 0 0-.121.001h.001a.584.584 0 0 0-.151.12l-.053-.049c.084-.076.191-.186.328-.324.142-.151.249-.266.315-.342l.053.049a.895.895 0 0 0-.111.155.138.138 0 0 0 .005.12v-.001c.018.04.062.089.129.155l1.304 1.246c.067.062.12.102.16.12a.14.14 0 0 0 .121-.001h-.001a.584.584 0 0 0 .151-.12l.053.049a5.791 5.791 0 0 0-.328.328c-.138.142-.24.257-.311.341l-.053-.049a.794.794 0 0 0 .106-.16zm-3.695 2.705a.16.16 0 0 0 .022-.13v.001a.685.685 0 0 0-.089-.195l-1.1-1.867.071-.044 2.51 1.255-.971-1.65a.655.655 0 0 0-.129-.169.183.183 0 0 0-.115-.041l-.019.001h.001a.59.59 0 0 0-.199.075l-.04-.062c.08-.035.186-.097.324-.177.124-.076.217-.133.284-.182l.035.062a.406.406 0 0 0-.142.129.16.16 0 0 0-.022.13v-.001c.009.049.04.111.089.195l.896 1.521c.044.08.084.133.12.16s.071.04.115.031a.77.77 0 0 0 .178-.071l.035.062a5.022 5.022 0 0 0-.536.315l-2.106-1.051.789 1.339c.049.08.089.137.129.168.035.031.08.044.133.04s.12-.031.204-.076l.035.062c-.08.035-.186.098-.324.177-.124.076-.217.133-.284.182l-.036-.062a.73.73 0 0 0 .142-.128zm-2.439.581c.031.138.071.288.124.448-.2.035-.532.107-1.003.204-.47.102-.798.178-.993.226a4.752 4.752 0 0 0-.082-.494l.006.033a2.359 2.359 0 0 0-.075-.288l.08-.018c.058.182.111.311.16.395s.111.138.191.164c.08.026.195.022.342-.009l.19-.04-.435-2.018c-.022-.098-.044-.169-.075-.208s-.067-.067-.12-.071a.815.815 0 0 0-.239.018l-.014-.071a12.965 12.965 0 0 0 1.046-.226l.013.071a.82.82 0 0 0-.222.08.168.168 0 0 0-.08.115v.001a.595.595 0 0 0 .018.221l.434 2.018.191-.04c.146-.031.253-.076.315-.133s.098-.133.106-.226a2.148 2.148 0 0 0-.018-.422l.08-.018c.013.071.031.169.058.288zm-5.885-1.246c.013-.137.018-.293.018-.466.164.022.439.049.829.084.461.04.811.071 1.051.084l-.004.071a.585.585 0 0 0-.191.013.135.135 0 0 0-.088.075v.001a.69.69 0 0 0-.04.195l-.16 1.796a.684.684 0 0 0 .005.2.126.126 0 0 0 .074.093h.001c.04.018.102.035.186.044l-.004.071a40.034 40.034 0 0 0-1.047-.102 19.058 19.058 0 0 0-.676-.054L13.867 30c.031-.155.053-.297.062-.426.009-.093.013-.169.009-.226l.084.009c.005.16.013.275.036.355a.268.268 0 0 0 .119.177l.001.001c.058.04.155.067.28.076l.301.027c.089.009.151.004.191-.005s.073-.037.088-.074v-.001a.698.698 0 0 0 .04-.195l.075-.852-.239-.022c-.12-.009-.204.018-.253.089a.623.623 0 0 0-.093.217c-.018.075-.026.124-.031.146l-.084-.009c.017-.12.031-.231.044-.342l.013-.173c.009-.124.018-.293.026-.514l.085.009c0 .018.004.075.004.177.004.103.026.182.08.235.049.058.124.089.222.098l.24.022.075-.869a.734.734 0 0 0-.005-.204l.001.004a.127.127 0 0 0-.075-.089h-.001a.654.654 0 0 0-.186-.04l-.266-.022a.763.763 0 0 0-.35.031c-.08.031-.142.093-.186.177s-.08.213-.115.381l-.085-.009c0-.067.009-.155.022-.262zm-3.49-1.645a.379.379 0 0 1 .222.035c.093.04.155.098.191.173.035.08.04.191.018.337l-.066.363a2.44 2.44 0 0 0-.039.292l-.001.01c-.004.071.013.137.044.195s.089.102.173.138l.319.133.324-.772a.745.745 0 0 0 .058-.191l.001-.012a.129.129 0 0 0-.045-.099.57.57 0 0 0-.164-.098l.026-.067c.102.049.24.111.421.186.191.08.337.137.435.168l-.027.067a.77.77 0 0 0-.182-.048l-.004-.001c-.044 0-.08.013-.106.049a.59.59 0 0 0-.098.173l-.696 1.663a.706.706 0 0 0-.058.191l-.001.011c0 .04.017.075.045.099a.663.663 0 0 0 .164.102l-.027.067c-.093-.044-.226-.107-.404-.182-.089-.035-.182-.076-.288-.12s-.177-.071-.217-.089c-.173-.076-.31-.16-.412-.262s-.16-.208-.186-.324a.53.53 0 0 1 .037-.341l-.001.003a.665.665 0 0 1 .475-.389l.004-.001a.992.992 0 0 1 .439.018l-.04-.022a.7.7 0 0 1-.208-.177.407.407 0 0 1-.084-.193v-.002a.79.79 0 0 1 .009-.266l.062-.377c.013-.076.022-.133.022-.178v-.014a.247.247 0 0 0-.019-.094l.001.002a.108.108 0 0 0-.066-.058h-.001a.138.138 0 0 0-.103-.009h.001a.818.818 0 0 0-.133.062l-.035-.058a.734.734 0 0 1 .222-.098zm.222 1.579a.424.424 0 0 0-.257.12.85.85 0 0 0-.173.271c-.075.182-.093.342-.044.47s.168.235.368.319a.355.355 0 0 0 .168.04.138.138 0 0 0 .106-.053.594.594 0 0 0 .093-.173l.346-.825-.226-.093a.758.758 0 0 0-.382-.075zm-3.681-.976a.132.132 0 0 0 .115-.018.66.66 0 0 0 .142-.142l1.113-1.419a.644.644 0 0 0 .107-.168.123.123 0 0 0 .008-.044.135.135 0 0 0-.021-.072.716.716 0 0 0-.133-.142l.044-.058c.085.076.2.173.355.293.164.129.288.222.373.28l-.044.057a.512.512 0 0 0-.169-.093.12.12 0 0 0-.115.018.66.66 0 0 0-.142.142L7.566 26.91a.62.62 0 0 0-.106.169.138.138 0 0 0 .014.116.719.719 0 0 0 .133.142l-.044.058a12.24 12.24 0 0 0-.333-.277l-.026-.02c-.155-.12-.28-.213-.368-.275l.044-.057c.075.049.129.08.168.093zM4.181 23.7a1.036 1.036 0 0 1 .129-.59c.106-.195.266-.368.488-.532.217-.155.435-.257.661-.297s.435-.026.63.049c.202.08.368.213.485.382l.002.003c.137.186.213.381.231.581s-.026.399-.129.59a1.647 1.647 0 0 1-.488.532 1.63 1.63 0 0 1-.661.297c-.222.04-.435.027-.63-.049a1.09 1.09 0 0 1-.486-.378l-.002-.003a1.167 1.167 0 0 1-.231-.585zm.665.789c.155.031.333.018.528-.044s.39-.164.594-.315c.204-.146.364-.306.475-.475a.988.988 0 0 0 .189-.557.62.62 0 0 0-.116-.362l.001.002a.59.59 0 0 0-.369-.235l-.004-.001c-.155-.031-.332-.018-.528.044s-.391.164-.594.31a1.795 1.795 0 0 0-.475.479 1.017 1.017 0 0 0-.19.496.597.597 0 0 0 .488.656zm-.323-6.129c.053.04.093.107.12.195a.338.338 0 0 1-.009.257c-.036.08-.12.155-.249.231l-.324.182a2.684 2.684 0 0 0-.261.17l.008-.006a.35.35 0 0 0-.119.157l-.001.002a.352.352 0 0 0 .004.222l.102.332.798-.248a.581.581 0 0 0 .181-.08.144.144 0 0 0 .058-.101v-.001a.651.651 0 0 0-.031-.191l.071-.022c.027.106.067.257.129.443.062.199.111.346.146.439l-.071.022a.64.64 0 0 0-.084-.173.138.138 0 0 0-.106-.053.579.579 0 0 0-.195.04l-1.721.532a.601.601 0 0 0-.182.08.14.14 0 0 0-.057.101v.001a.633.633 0 0 0 .031.191l-.071.022a6.046 6.046 0 0 0-.12-.426c-.027-.089-.062-.191-.098-.297l-.075-.222c-.057-.182-.075-.342-.062-.483s.058-.257.129-.35a.542.542 0 0 1 .28-.191c.089-.026.186-.035.293-.022s.208.057.315.137.195.195.271.35l-.004-.044c-.013-.111-.018-.2 0-.275s.049-.138.093-.191a.874.874 0 0 1 .213-.164l.328-.195a.922.922 0 0 0 .151-.098.289.289 0 0 0 .07-.078l.001-.001a.118.118 0 0 0 .004-.09v.001a.152.152 0 0 0-.057-.084.63.63 0 0 0-.128-.061l-.005-.001.022-.067a.726.726 0 0 1 .213.107zm-1.06 1.189a.428.428 0 0 0-.255-.119h-.002a.775.775 0 0 0-.319.044c-.19.058-.319.151-.39.271s-.071.284-.009.483c.022.071.049.124.075.155s.067.049.111.049.111-.013.191-.036l.851-.266-.071-.235a.738.738 0 0 0-.182-.346zm.718-5.398c.168-.075.27-.217.315-.43a.513.513 0 0 0-.01-.239l.001.004a.433.433 0 0 0-.124-.199.476.476 0 0 0-.257-.115.454.454 0 0 0-.261.023l.003-.001a.798.798 0 0 0-.236.147l.001-.001a3.196 3.196 0 0 0-.259.262l-.003.004a3.073 3.073 0 0 1-.293.297.904.904 0 0 1-.273.166l-.006.002a.64.64 0 0 1-.346.022.613.613 0 0 1-.324-.155.583.583 0 0 1-.163-.28l-.001-.004a.831.831 0 0 1-.004-.355l-.001.005c.013-.075.031-.133.053-.186s.044-.093.071-.124c.026-.031.053-.066.089-.102a.33.33 0 0 0 .075-.111c.004-.022-.004-.04-.027-.058s-.062-.031-.115-.049l.013-.08c.138.035.377.089.727.155l-.013.08a1.051 1.051 0 0 0-.355.018.575.575 0 0 0-.289.147.506.506 0 0 0-.155.297.444.444 0 0 0 .01.239l-.001-.003a.393.393 0 0 0 .115.182.462.462 0 0 0 .536.04c.093-.062.182-.142.266-.235s.138-.155.169-.186c.124-.133.226-.235.31-.31s.177-.129.28-.164a.647.647 0 0 1 .332-.018.69.69 0 0 1 .355.169c.089.089.146.191.177.315s.031.257.005.399a.906.906 0 0 1-.089.275.82.82 0 0 1-.138.191.346.346 0 0 0-.075.111c-.004.022.004.04.027.057s.062.035.115.049l-.013.08a13.2 13.2 0 0 0-.851-.173l.013-.08c.249.022.452 0 .621-.075zm-.878-3.738a3.76 3.76 0 0 0-.426-.191c.098-.173.262-.475.483-.905.221-.426.377-.727.461-.909.146.093.28.173.399.235.107.058.199.098.27.129l-.04.075a1.946 1.946 0 0 0-.404-.129c-.093-.018-.177 0-.249.044s-.142.133-.208.266l-.089.177 1.832.954c.089.049.16.071.208.075s.093-.009.133-.044a.84.84 0 0 0 .138-.195l.067.035c-.065.106-.15.26-.232.416l-.025.054a6.743 6.743 0 0 0-.199.387l-.041.092-.066-.035a.896.896 0 0 0 .08-.222.154.154 0 0 0-.04-.138.68.68 0 0 0-.182-.129l-1.831-.958-.093.173c-.071.133-.102.239-.098.324s.04.16.106.226.177.155.337.257l-.04.075a4.034 4.034 0 0 0-.221-.126l-.032-.016zm3.131-5.096c.075-.075.137-.146.182-.199l.053.053a.265.265 0 0 0-.035.165v-.001c.004.067.022.16.057.27l.404 1.202.47.465a.721.721 0 0 0 .155.124.14.14 0 0 0 .121-.001H7.84a.765.765 0 0 0 .155-.115l.053.053a8.862 8.862 0 0 0-.332.32 7.49 7.49 0 0 0-.313.33l-.006.007-.053-.053a.727.727 0 0 0 .115-.155.128.128 0 0 0-.004-.12v.001a.623.623 0 0 0-.124-.155l-.39-.386-1.481-.435a.58.58 0 0 0-.199-.031.16.16 0 0 0-.098.04l-.053-.053c.071-.062.151-.133.231-.217.164-.168.284-.288.35-.368l.053.053c-.12.12-.146.213-.08.28a.287.287 0 0 0 .115.062l1.246.386-.328-.98c-.049-.142-.098-.24-.151-.288-.049-.049-.102-.062-.16-.044s-.124.062-.204.137l-.053-.053c.107-.098.204-.195.306-.293zM9.117 3.53a.13.13 0 0 0-.031.115v-.001a.676.676 0 0 0 .075.186l.856 1.588a.63.63 0 0 0 .115.164c.031.031.071.04.111.035s.102-.031.177-.071l.235-.129c.133-.071.226-.146.275-.221s.066-.16.053-.262a1.599 1.599 0 0 0-.124-.399l.075-.04c.031.071.075.16.133.266.066.12.146.253.244.399-.146.071-.395.199-.736.386-.408.222-.718.391-.922.51l-.035-.062a.644.644 0 0 0 .155-.115.131.131 0 0 0 .031-.117v.001a.652.652 0 0 0-.077-.189l.002.003-.865-1.588a.63.63 0 0 0-.115-.164.13.13 0 0 0-.091-.037l-.021.002h.001a.549.549 0 0 0-.182.067l-.031-.067c.093-.04.231-.111.413-.213.173-.093.306-.169.399-.227l.036.062a.729.729 0 0 0-.155.116zm5.401.284c.027.133.067.284.116.452-.164.027-.435.075-.816.151-.457.089-.798.16-1.033.213l-.013-.071a.577.577 0 0 0 .182-.067.132.132 0 0 0 .062-.097v-.001a.723.723 0 0 0-.018-.199l-.346-1.77c-.018-.089-.035-.151-.062-.191s-.053-.062-.098-.067a.591.591 0 0 0-.19.009l-.013-.071c.235-.04.581-.102 1.033-.19.35-.071.599-.12.741-.155.013.16.035.301.057.426.018.093.035.164.053.217l-.08.018a1.91 1.91 0 0 0-.133-.332.288.288 0 0 0-.162-.137l-.002-.001a.602.602 0 0 0-.293.004l-.297.058a.64.64 0 0 0-.182.057.14.14 0 0 0-.066.097v.001a.732.732 0 0 0 .018.2l.164.843.235-.049c.12-.022.191-.075.217-.155s.035-.155.031-.231c-.005-.075-.009-.124-.009-.146l.08-.018c.013.12.031.231.053.337l.035.168c.022.12.062.288.12.501l-.08.018-.053-.168c-.031-.097-.075-.164-.142-.204-.066-.04-.142-.049-.24-.031l-.235.044.169.856a.724.724 0 0 0 .057.191.14.14 0 0 0 .097.066h.001c.04.004.107 0 .191-.018l.262-.053c.146-.031.257-.071.328-.124s.111-.128.129-.221c.018-.093.018-.226.004-.399l.08-.018c.013.067.027.151.049.257zM11.53 20.75a5.133 5.133 0 0 1-.523-.877l-.013-.032a6.196 6.196 0 0 1-.373-1.015 16.689 16.689 0 0 1-.018-4.43c.218-1.608.542-3.04.977-4.422l-.051.187c.071-.155.226-.231.466-.231s.474.053.714.16c.24.106.435.249.59.426s.191.364.106.554a7.2 7.2 0 0 0-.39 1.149c-.104.351-.233.888-.344 1.432l-.028.164a23.42 23.42 0 0 0-.293 1.673l-.018.154a23.33 23.33 0 0 0-.19 1.741l-.005.086c-.04.581-.049 1.108-.027 1.579s.093.843.213 1.113a23.651 23.651 0 0 0 1.473-2.215l.062-.114c.358-.594.794-1.394 1.202-2.21l.106-.233c.263-.492.654-1.315 1.025-2.15l.141-.356c-1.506 3.878-1.141 3.056-.778 2.233l1.864-4.73c.106-.22.284-.655.453-1.094l.075-.223c.173-.465.399-.86.687-1.193.12-.106.213-.142.275-.106.067.035.111.102.133.204s.036.208.036.319v.257a36.492 36.492 0 0 0-.213 1.623 6.386 6.386 0 0 1-.387 1.596l.015-.044c-.31.785-.625 1.561-.953 2.337a37.826 37.826 0 0 1-1.163 2.527l.111-.243a27.93 27.93 0 0 1-1.282 2.305l.071-.123a18.994 18.994 0 0 1-1.448 2.059l.029-.037c-.403.509-.807.78-1.202.811-.413.035-.78-.173-1.127-.612zm7.343-2.013a33.707 33.707 0 0 1-.705-1.016 1.982 1.982 0 0 1-.346-1.126v-.015.001c0-.461.133-.9.399-1.313.266-.408.572-.741.918-.989.142-.093.288-.173.435-.231s.306-.053.474.018c.071.035.146.062.222.08s.146.04.204.062.124.058.195.107a.223.223 0 0 1 .107.195c0 .332.009.603.026.812s.044.386.08.537a5 5 0 0 0 .107.39c.035.115.071.235.107.363a.513.513 0 0 1-.018.302c-.036.084-.124.093-.266.036-.262-.093-.457-.284-.581-.572s-.217-.546-.275-.785a2.495 2.495 0 0 0-.094-.264l.006.015a2.734 2.734 0 0 1-.084-.229l-.005-.019c-.093-.022-.208.009-.337.098s-.249.213-.346.364a1.25 1.25 0 0 0-.195.537.968.968 0 0 0 .115.607c.049.071.116.16.204.257.089.102.177.204.266.311s.177.213.266.31.164.182.222.239c.071.071.12.111.142.116s.084-.009.177-.044c.12-.058.302-.138.546-.231s.501-.191.767-.284c.266-.093.523-.173.767-.239s.43-.098.563-.098c.084 0 .142.031.177.089.036.035.031.084-.018.142a1.168 1.168 0 0 1-.184.175l-.003.002a2.799 2.799 0 0 1-.227.153l-.013.007c-.084.049-.138.076-.16.089-.204.12-.457.253-.767.404-.31.146-.576.293-.802.435a.356.356 0 0 1-.133.071.644.644 0 0 0-.154.073l.003-.002c.142.319.244.599.302.829s.08.452.062.669a2.974 2.974 0 0 1-.139.673l.006-.021c-.071.221-.169.474-.284.758-.201.33-.369.586-.544.837l.034-.052a4.25 4.25 0 0 1-.581.679 2.556 2.556 0 0 1-.68.472l-.016.007c-.249.12-.523.177-.82.177a1.94 1.94 0 0 1-.497-.065l.013.003a.737.737 0 0 1-.39-.257c-.275-.297-.426-.621-.461-.971a2.857 2.857 0 0 1 .093-1.062l-.005.02c.076-.226.166-.421.274-.604l-.008.014c.262-.452.55-.834.865-1.149.319-.311.648-.612.994-.896zm.608.803c-.133.133-.311.319-.537.563a7.544 7.544 0 0 0-.618.77l-.016.024a5.246 5.246 0 0 0-.465.814l-.014.033c-.124.28-.155.519-.098.723.24-.106.483-.284.732-.528s.47-.51.661-.803c.19-.293.324-.581.399-.865.076-.288.062-.532-.044-.732z" style="fill:var(--color2, #292f36)"/><path fill="#292f36" d="M15.983 25.957c-5.548 0-10.063-4.515-10.063-10.063S10.435 5.832 15.983 5.832c5.548 0 10.062 4.515 10.062 10.063s-4.514 10.063-10.062 10.063zm0-19.682c-5.304 0-9.619 4.315-9.619 9.619s4.315 9.619 9.619 9.619 9.619-4.315 9.619-9.619-4.315-9.619-9.619-9.619z" style="fill:var(--color2, #292f36)"/></symbol>
<symbol id="icon-brand" viewBox="0 0 119 32"><path fill="#292f36" d="M25.745 31.671H6.242A5.802 5.802 0 0 1 .44 25.869V6.363A5.802 5.802 0 0 1 6.241.561h19.505a5.802 5.802 0 0 1 5.802 5.802V25.869a5.802 5.802 0 0 1-5.802 5.802z" style="fill:var(--color2, #292f36)"/><path fill="#fff" d="M21.598 16.402c.555.696.836 1.505.836 2.422 0 1.348-.449 2.404-1.347 3.153s-2.184 1.135-3.857 1.135H9.921V7.395h7.133c1.602 0 2.835.352 3.707 1.047s1.312 1.691 1.312 2.977c0 .951-.255 1.735-.757 2.369s-1.162 1.039-1.981 1.233c.96.228 1.708.687 2.263 1.382zm-7.881-2.579h2.492c1.321 0 1.982-.564 1.982-1.691s-.679-1.69-2.025-1.69h-2.449v3.381zm4.826 4.472c0-.563-.185-1.004-.555-1.321s-.898-.475-1.576-.475h-2.686v3.531h2.713c1.399-.009 2.104-.582 2.104-1.735z" style="fill:var(--color1, #fff)"/><path fill="#292f36" d="m49.573 23.113-3.399-5.935h-.863v5.935h-3.804V7.396h6.489c1.241 0 2.298.211 3.152.642.863.432 1.505 1.022 1.937 1.77s.643 1.603.643 2.571c0 1.145-.317 2.113-.943 2.915-.634.801-1.541 1.347-2.747 1.647l3.733 6.182h-4.2v-.009zm-4.262-8.533h2.351c.758 0 1.313-.167 1.665-.502s.537-.828.537-1.479c0-.625-.185-1.11-.545-1.471-.361-.352-.916-.537-1.656-.537h-2.351v3.989zm25.624 5.671h-5.891l-.977 2.871H60.07l5.759-15.604h4.376l5.759 15.603h-4.042l-.986-2.871zm-.977-2.898-1.954-5.777-1.982 5.777h3.936zm26.989 5.76h-3.804l-6.358-9.651v9.651h-3.804V7.394h3.804l6.358 9.739V7.395h3.804v15.717zm21.326-3.787c-.66 1.189-1.611 2.122-2.844 2.791-1.241.669-2.695 1.004-4.368 1.004h-5.935V7.404h5.935c1.691 0 3.153.326 4.377.977 1.233.652 2.175 1.567 2.835 2.756s.986 2.544.986 4.095c0 1.532-.335 2.897-.986 4.095zm-4.095-.793c.819-.783 1.233-1.892 1.233-3.311 0-1.426-.414-2.527-1.233-3.311s-1.972-1.18-3.46-1.18h-1.796v8.982h1.796c1.488 0 2.641-.388 3.46-1.18z" style="fill:var(--color2, #292f36)"/></symbol><symbol id="icon-nature" viewBox="0 0 104 32"><path d="m15.093 6.369.762-.162c.193 0 .356.041.467.122s.172.163.172.234-.02.182-.05.314-.315 1.492-.843 4.06c.236-1.698-.167.243-.559 2.188l-.598 3.558c1.178-1.604 2.558-3.573 4.132-5.919s2.497-3.898 2.761-4.669c.081-.244.193-.427.325-.558s.254-.213.356-.234c.135-.026.291-.041.449-.041h.028-.001c.213 0 .467.051.762.142s.447.244.447.467c0 .405-.609 1.593-1.817 3.543-1.208 1.948-2.598 4.019-4.161 6.212s-2.863 3.928-3.908 5.207c-.183.223-.416.345-.681.345a2.875 2.875 0 0 1-.862-.148l.02.006c-.294-.091-.447-.254-.447-.498 0-.761.67-4.435 2.01-11.003-1.147 1.482-2.538 3.553-4.172 6.202-1.705 2.741-2.67 4.446-2.893 5.096-.122.395-.264.629-.427.69a.852.852 0 0 1-.356.071l-.822.092a.799.799 0 0 1-.447-.132c-.132-.092-.203-.183-.203-.284 0-.274.385-1.107 1.147-2.487s1.665-2.883 2.69-4.507a82.148 82.148 0 0 1 3.375-4.969l-.167.239c1.116-1.532 1.98-2.568 2.588-3.086a.601.601 0 0 1 .413-.162h.014-.001l.498.071zm12.201 6.883c.528 0 .791.183.791.538 0 .193-.041.335-.132.427s-.284.385-.579.903a20.726 20.726 0 0 0-.974 1.959c-.356.791-.589 1.472-.69 2.03a1.05 1.05 0 0 0-.031.294c0 .385.102.569.315.569s.457-.102.741-.295a5.18 5.18 0 0 0 .761-.64c.215-.218.427-.442.634-.671l.016-.018c.213-.233.335-.375.375-.405a.302.302 0 0 1 .169-.052h.015-.001c.132 0 .213.102.244.304s.041.406.041.629-.021.366-.061.447c-.203.396-.64.873-1.33 1.431-.68.558-1.309.832-1.867.832s-.974-.172-1.228-.507-.396-.721-.396-1.127c0-.416.071-.772.213-1.086a9.363 9.363 0 0 1-1.952 1.89l-.028.019c-.751.517-1.35.782-1.828.782s-.852-.142-1.157-.427c-.385-.356-.569-.843-.569-1.472s.142-1.259.427-1.898a6.913 6.913 0 0 1 1.107-1.736c.458-.525.953-.995 1.489-1.414l.023-.018c1.147-.903 2.213-1.35 3.187-1.35.376 0 .681.06.914.183s.386.284.447.466c.163-.254.304-.405.427-.476.091-.082.263-.112.487-.112zm-1.38 1.157c-1.188 0-2.416.66-3.685 1.979a9.45 9.45 0 0 0-1.225 1.651l-.024.045c-.385.66-.569 1.107-.569 1.35s.071.366.213.366c.193 0 .731-.386 1.625-1.147s1.482-1.33 1.766-1.695c.325-.406.954-1.259 1.899-2.548z"/><path d="m35.191 7.75.427.102c.061 0 .122.031.162.092.051.06.071.121.071.172s-.071.203-.223.447c-.152.244-.314.518-.518.823s-.304.476-.314.507c.328-.03.727-.052 1.128-.06h.019c.223 0 .375.02.467.05.081.031.183.122.284.264.112.142.203.254.294.325s.132.183.132.325-.092.274-.265.366a1.36 1.36 0 0 1-.562.182h-.006c-1.614.162-2.497.243-2.66.253-.558.863-1.35 2.203-2.355 4.02s-1.543 2.964-1.604 3.42a3.502 3.502 0 0 0-.041.508c0 .274.142.406.427.406s.599-.112.944-.324c.36-.229.671-.463.963-.719l-.009.008c.782-.69 1.197-1.045 1.249-1.045.183 0 .274.315.274.934 0 .335-.152.64-.467.914-.7.599-1.289 1.056-1.766 1.36s-.954.457-1.441.457c-.102 0-.203-.01-.294-.031-.558-.101-.964-.304-1.218-.609-.264-.304-.386-.711-.386-1.218s.152-1.137.457-1.868c.395-.941.776-1.708 1.196-2.45l-.06.115a74.621 74.621 0 0 1 2.439-4.114l-.196.329-.396.05c-.801.092-1.269.132-1.401.132h-.091c-.203 0-.396-.041-.579-.122s-.284-.183-.284-.294c0-.122.051-.234.153-.346s.162-.203.183-.263c.05-.153.233-.326.548-.508s.548-.284.711-.294l.466-.03c.153-.011.315-.011.498-.021s.325-.01.427-.02l.934-.041c.578-.873.984-1.441 1.197-1.685.223-.253.345-.385.375-.405s.102-.041.213-.041l.498-.051z"/><path d="M41.434 17.891c.132 0 .213.102.243.304s.041.406.041.629-.02.366-.06.447c-.203.386-.64.863-1.32 1.422s-1.33.842-1.938.842c-.392 0-.755-.125-1.051-.338l.005.004c-.315-.224-.478-.619-.478-1.178s.153-1.116.447-1.655c-1.726 2.162-3.066 3.238-4.05 3.238h-.031c-.364 0-.69-.161-.912-.415l-.001-.001c-.243-.274-.356-.558-.356-.863 0-.294.041-.599.122-.914s.173-.599.264-.853c.092-.254.234-.558.417-.924s.324-.629.405-.802c.082-.172.234-.416.437-.751s.457-.791.782-1.36c.324-.569.588-.995.801-1.269s.416-.416.619-.416.377.081.528.243.233.304.233.406-.233.569-.7 1.401c-1.371 2.487-2.061 3.928-2.061 4.345 0 .101.041.152.112.152.334 0 1.167-.721 2.487-2.162 1.32-1.442 2.091-2.366 2.304-2.772s.406-.751.609-1.025c.193-.274.345-.447.447-.508.294-.193.68-.294 1.157-.315.081 0 .132 0 .173.011s.091.071.142.172a.63.63 0 0 1 .081.261v.002c-.061.193-.335.711-.832 1.553-.488.843-.762 1.32-.812 1.421-.823 1.695-1.229 2.802-1.229 3.309 0 .294.112.437.335.437.406-.05.894-.375 1.462-.964.213-.213.416-.437.619-.66s.336-.356.376-.385a.243.243 0 0 1 .173-.071h.011-.001z"/><path d="M44.449 15.485c1.634-1.857 3.035-2.792 4.182-2.792.284 0 .518.082.7.254s.274.386.274.66-.192.721-.578 1.36a21.725 21.725 0 0 1-1.109 1.664l.042-.06c-.172.223-.365.335-.588.335h-.023a.601.601 0 0 1-.483-.242l-.001-.002a.893.893 0 0 1-.183-.544v-.015.001c0-.477.254-1.025.772-1.624l-.02-.021c-.234.021-.792.477-1.705 1.35a68.158 68.158 0 0 0-2.278 2.326l-.036.039a36.437 36.437 0 0 0-2.002 2.452l-.069.096c-.213.294-.396.447-.548.447-.153 0-.346-.051-.59-.142s-.396-.163-.447-.203-.081-.112-.081-.213c0-.091.031-.213.081-.334.05-.132.162-.315.304-.548s.376-.619.681-1.147c.304-.528.772-1.33 1.411-2.396.64-1.065 1.015-1.715 1.147-1.938.264-.457.476-.791.649-.994.315-.396.843-.589 1.584-.589.163 0 .254.101.254.314 0 .325-.304.944-.903 1.838l-.437.67zm11.196-2.111c0 .457-.183.863-.558 1.208s-.791.518-1.269.518c-.152 0-.254-.041-.304-.112s-.071-.173-.071-.284.01-.233.041-.345c-.254.081-.528.213-.832.385s-.681.427-1.127.772-.67.589-.67.761c0 .051.081.082.243.082s.417-.061.752-.173c.334-.112.578-.173.71-.173s.223.011.264.021c.091.05.183.152.294.314.102.163.152.294.152.386s-.091.213-.274.366a1.978 1.978 0 0 1-.595.34l-.014.004a3.338 3.338 0 0 0-.457.183c-1.462.822-2.193 1.38-2.193 1.685 0 .538.457.811 1.381.811.589 0 1.188-.182 1.776-.558a12.36 12.36 0 0 0 1.37-.974c.405-.325.66-.528.772-.609s.193-.112.243-.112c.183 0 .275.203.275.609s-.021.67-.071.791c-.051.132-.183.284-.416.477-1.482 1.208-2.894 1.817-4.213 1.817-.711 0-1.269-.101-1.695-.294-.782-.356-1.168-.894-1.168-1.624 0-.954.66-1.685 1.99-2.172-.264-.122-.437-.264-.508-.457-.081-.183-.112-.476-.112-.883s.193-.832.569-1.289c.38-.457.842-.832 1.366-1.105l.024-.012c1.218-.66 2.315-.985 3.269-.985.255.002.496.061.71.166l-.01-.004c.243.112.356.264.356.467zm23.693-7.065h.132c.041 0 .071 0 .082.01s.02.01.041.021c.02 0 .03.01.05.03a.562.562 0 0 0 .139.09l.004.001c.081.06.122.132.122.213s-.081.253-.243.518c-.163.263-.579.903-1.259 1.938-.896 1.302-2.274 3.461-3.615 5.645l-.556.973c-2.122 3.533-3.198 5.309-3.218 5.329a.206.206 0 0 0-.041.06l-.001.001c-.01.041-.03.06-.081.06l-.142-.03-.284.071-.162-.031-.172.03h-.061l-.579.082c-.345 0-.518-.122-.518-.356 0-.102.031-.223.092-.366.213-.507 1.299-2.345 3.248-5.532-1.279.031-2.548.051-3.797.051l-2.233-.01c-.365.589-.873 1.421-1.513 2.507-1.381 2.365-2.112 3.553-2.203 3.573s-.162.041-.223.041c-.06 0-.112-.031-.152-.102-.05-.06-.081-.101-.102-.101a.284.284 0 0 0-.113.041l.001-.001c-.05.031-.132.041-.243.041l-.244-.01-.091-.061c-.011 0-.021.01-.031.031s-.041.031-.081.031c-.294 0-.447-.122-.447-.376 0-.162.06-.385.172-.659.122-.274.275-.569.467-.883s.68-1.076 1.482-2.263a114.698 114.698 0 0 0 1.188-1.797c-.132-.01-.284-.01-.457-.021-.356 0-.599-.01-.752-.041-.395-.071-.67-.395-.812-.974-.081-.284-.112-.467-.101-.558 0-.183.081-.284.243-.284l.275.071c.142.01.467.021.995.051s.903.041 1.136.041l.589-.021c.903-1.411 1.98-3.015 3.238-4.801-.914.751-1.929 1.127-3.045 1.127-.528 0-.985-.122-1.36-.375-.386-.254-.569-.579-.569-.965s.142-.69.437-.924c.294-.223.569-.334.832-.334.265 0 .396.04.396.121 0 .031-.041.061-.112.092-.071.04-.112.07-.112.101 0 .112.122.213.365.294s.518.132.822.132c.305 0 .67-.091 1.116-.263s.904-.407 1.381-.681a33.15 33.15 0 0 0 1.584-.964c.223-.112.427-.163.629-.163s.335.021.426.071a.648.648 0 0 1 .193.132.865.865 0 0 1 .132.173c.05.071.092.132.142.162.041.041.071.081.071.132 0 .05-.031.121-.081.233-.051.102-.315.528-.792 1.269s-1.096 1.685-1.847 2.832c-.097.102-.639.929-1.175 1.761l-.469.776c1.857 0 3.857-.03 6.009-.101 2.619-4.132 4-6.293 4.141-6.497s.275-.335.396-.396a.97.97 0 0 1 .437-.091l.883.071zm3.39 6.923c.213 0 .427.091.639.284.223.192.325.476.325.863s-.132.883-.406 1.503c-.33.717-.702 1.333-1.134 1.902l.018-.025a16.397 16.397 0 0 1-1.552 1.786l-.001.001a8.28 8.28 0 0 1-1.786 1.349l-.042.021c-.659.356-1.248.538-1.786.538s-.964-.172-1.289-.507c-.325-.336-.487-.802-.487-1.401s.152-1.269.447-1.99a7.153 7.153 0 0 1 1.146-1.94l-.009.012c.461-.552.956-1.045 1.493-1.487l.019-.015c1.126-.914 2.121-1.36 2.974-1.36.386 0 .67.092.863.284.071.06.101.122.101.162v.061c.112-.041.264-.041.467-.041zm-1.045 1.38h-.071c-.244 0-.365-.172-.365-.528-.508.162-1.035.457-1.594.873-.568.43-1.06.918-1.479 1.464l-.013.018c-.893 1.136-1.34 2.101-1.35 2.883 0 .385.142.578.426.578s.711-.193 1.269-.558 1.116-.903 1.675-1.604c.548-.69.964-1.299 1.239-1.807s.416-.853.416-1.045c-.01-.183-.061-.274-.152-.274zm1.785 6.608-.507-.02h-.183a.71.71 0 0 1-.225-.123l.001.001c-.082-.06-.142-.112-.183-.132s-.061-.081-.061-.152.031-.203.081-.376c1.35-2.974 2.66-5.36 3.928-7.136.142-.192.365-.345.671-.447.269-.095.579-.15.902-.152h.001c.173 0 .264.132.264.406a.862.862 0 0 1-.081.304c-.05.132-.193.335-.416.63-.223.294-.487.629-.792.994s-.477.589-.518.65c.954-.985 1.807-1.715 2.579-2.203.772-.476 1.32-.72 1.665-.72s.609.102.791.294.275.405.275.629c0 .223-.021.416-.051.558a1.84 1.84 0 0 1-.177.477l.005-.01c-.081.162-.152.304-.213.416a4.548 4.548 0 0 1-.303.458l.009-.012c-.142.183-.233.314-.284.385s-.162.203-.324.396a5.131 5.131 0 0 0-.255.312l-.01.013c.193-.193.467-.477.812-.863s.64-.7.883-.954c.244-.254.538-.548.904-.873s.7-.589 1.005-.781c.751-.467 1.513-.711 2.284-.711.264 0 .487.082.67.255s.274.366.274.599-.284.791-.843 1.664c-.558.874-1.126 1.756-1.685 2.64s-.843 1.441-.843 1.675c0 .315.061.508.173.569.122.061.264.081.426.071s.406-.122.7-.325c.304-.203.569-.405.802-.629.384-.348.731-.675 1.071-1.01l-.005.005a.338.338 0 0 1 .233-.092c.132 0 .213.102.244.305s.041.405.041.629c0 .223-.021.366-.061.447-.203.385-.649.863-1.33 1.431-.691.559-1.35.843-1.979.843-.082 0-.132 0-.163-.01-.71-.071-1.207-.264-1.482-.589s-.406-.711-.406-1.147c0-.437.152-.985.457-1.614s.63-1.207.995-1.715.691-.974.995-1.391.457-.639.457-.67-.031-.05-.082-.05c-.213 0-.69.345-1.441 1.045a40.535 40.535 0 0 0-3.288 3.431 79.365 79.365 0 0 0-1.726 2.213c-.102.142-.275.213-.498.213a1.989 1.989 0 0 1-.714-.137l.013.005c-.243-.091-.365-.203-.365-.335 0-.071.548-1.045 1.654-2.923s1.655-2.903 1.655-3.066c0-.173-.102-.254-.304-.254s-.629.304-1.269.914c-1.756 1.675-3.117 3.349-4.081 5.004-.06.102-.183.254-.365.457s-.345.284-.406.284z"/><path d="M103.598 13.374c0 .457-.183.863-.558 1.208s-.792.518-1.269.518c-.152 0-.253-.041-.304-.112s-.071-.173-.071-.284.011-.233.041-.345c-.253.081-.528.213-.832.385s-.681.427-1.127.772-.67.589-.67.761c0 .051.081.082.244.082s.416-.061.751-.173.579-.173.71-.173c.132 0 .223.011.265.021.091.05.182.152.294.314.101.163.152.294.152.386s-.092.213-.275.366a1.978 1.978 0 0 1-.595.34l-.014.004a3.228 3.228 0 0 0-.457.183c-1.461.822-2.192 1.38-2.192 1.685 0 .538.457.811 1.38.811.589 0 1.188-.182 1.776-.558.508-.314.965-.639 1.371-.974.406-.325.659-.528.771-.609s.193-.112.244-.112c.183 0 .274.203.274.609s-.02.67-.071.791c-.05.132-.182.284-.416.477-1.482 1.208-2.893 1.817-4.213 1.817-.71 0-1.269-.101-1.695-.294-.781-.356-1.167-.894-1.167-1.624 0-.954.66-1.685 1.99-2.172-.264-.122-.437-.264-.508-.457-.081-.183-.112-.476-.112-.883s.193-.832.568-1.289c.38-.458.843-.832 1.366-1.105l.024-.012c1.218-.66 2.315-.985 3.268-.985.234 0 .457.05.7.162s.356.264.356.467zM.698 24.032a52.827 52.827 0 0 0 8.161 2.639c2.337.615 5.176 1.136 8.076 1.457l.278.025c1.401.193 2.812.213 4.203.346 1.411.01 2.812.122 4.213.041l2.101-.051c.7-.01 1.401-.101 2.101-.142.7-.06 1.401-.091 2.091-.182l2.081-.294c2.792-.304 5.502-.954 8.202-1.736 2.731-.751 5.309-1.746 8.039-2.781 2.792-1.025 5.817-1.695 8.882-1.37 1.513.192 3.036.68 4.274 1.573 1.249.883 2.142 2.142 2.71 3.462-.852-1.178-1.918-2.142-3.147-2.741s-2.578-.843-3.918-.802c-2.709.041-5.38.944-7.886 2.081-2.19 1.114-4.864 2.243-7.619 3.198l-.472.142c-2.802.903-5.695 1.623-8.628 1.989-5.837.772-11.816.782-17.581-.385-2.893-.528-5.715-1.35-8.446-2.396-2.71-1.086-5.36-2.355-7.715-4.07zM97.77 7.131a46.67 46.67 0 0 0-6.903-2.304 54.168 54.168 0 0 0-7.044-1.36c-1.178-.183-2.375-.223-3.553-.365-1.188-.031-2.365-.152-3.553-.102-.589.011-1.188.011-1.776 0-.589 0-1.188.061-1.776.081-.589.041-1.188.051-1.776.112l-1.766.213c-2.365.193-4.659.681-6.953 1.279-2.325.558-4.528 1.35-6.872 2.142-2.406.801-5.015 1.289-7.633.924-1.289-.213-2.588-.67-3.614-1.482-1.045-.802-1.756-1.899-2.193-3.046.721 1.005 1.614 1.828 2.64 2.335s2.152.721 3.278.711c2.274 0 4.528-.731 6.66-1.645 2.172-1.035 4.557-1.948 6.933-2.7 2.394-.72 4.892-1.269 7.388-1.532 4.984-.528 10.08-.406 14.963.751 2.446.518 4.831 1.309 7.115 2.284 2.294.995 4.507 2.152 6.436 3.705z"/></symbol>
<symbol id="icon-classic" viewBox="0 0 79 32"><path d="M.456 19.856V.387h11.467v19.46l-11.467.009zm10.077-4.529.295-2.151-1.066-.105-.323 1.655c-.667.333-1.485.495-2.465.495-1.333 0-2.389-.419-3.16-1.266-.78-.847-1.161-1.96-1.161-3.35 0-1.351.381-2.465 1.133-3.34s1.741-1.313 2.969-1.313c.629 0 1.161.076 1.589.219s.819.333 1.19.58l.313 1.637 1.085-.105-.314-2.151a5.678 5.678 0 0 0-1.627-.951c-.628-.238-1.409-.361-2.331-.361-1.095 0-2.037.267-2.827.809a5.562 5.562 0 0 0-1.832 2.109l-.014.032a6.379 6.379 0 0 0-.656 2.839v.046-.002c0 1.627.504 2.988 1.513 4.073s2.321 1.627 3.949 1.627c1.599 0 2.846-.343 3.74-1.027zm5.282 4.529V.387h4.929v19.46h-4.929v.009zm.524-3.673h3.892v-.98h-1.342V4.336H16.32v.98h1.361v9.887H16.34v.98zm8.298 3.673V.387h8.66v19.46h-8.66v.009zm1.57-10.753-.276 1.77 1 .124.295-1.323c.428-.209.913-.314 1.485-.314.685 0 1.151.171 1.389.513s.352.79.352 1.342v.685a11.057 11.057 0 0 0-.637-.047l-.029-.001c-.237-.009-.466-.019-.694-.019h-.039c-.863 0-1.687.168-2.442.472l.044-.016c-.761.305-1.142.942-1.142 1.903 0 .819.257 1.38.78 1.685.524.313 1.038.466 1.542.466.619 0 1.151-.162 1.589-.485s.78-.685 1.028-1.104v.038c.019 1.037.485 1.551 1.399 1.551.352 0 .685-.085.999-.257l-.019-.79a1.26 1.26 0 0 1-.513.105c-.438 0-.657-.276-.657-.828v-3.645c0-1.713-.913-2.569-2.741-2.569-.505 0-.98.057-1.428.171a4.576 4.576 0 0 0-1.302.581l.018-.011zm4.235 4.206c-.048.628-.305 1.132-.771 1.493-.467.371-.961.552-1.493.552-.333 0-.657-.095-.961-.275-.315-.181-.467-.524-.467-1.019 0-.6.238-.98.695-1.161.467-.181.98-.267 1.561-.267.257 0 .505.009.743.038.237.019.475.038.685.047v.59h.01zm6.756 6.547V.387h7.87v19.46h-7.87v.009zm7.042-5.891c0-.609-.162-1.056-.485-1.351s-.713-.495-1.189-.609a15.827 15.827 0 0 0-1.294-.269l-.114-.016c-.467-.077-.866-.2-1.189-.362s-.485-.447-.485-.857c0-.39.152-.675.467-.866.313-.19.703-.275 1.189-.275.562 0 1.085.123 1.571.38l.19 1.237 1-.123-.191-1.789c-.324-.2-.713-.361-1.18-.495s-.961-.209-1.494-.209h-.021a3.93 3.93 0 0 0-1.949.514l.019-.01c-.599.333-.895.904-.895 1.723 0 .6.162 1.037.485 1.313.324.285.723.475 1.209.59.293.077.779.18 1.269.269l.168.025c.475.076.875.209 1.199.381s.485.467.485.895c0 .438-.209.761-.628.971s-.895.314-1.437.314c-.609 0-1.18-.123-1.703-.38l.047-1.019-.961-.105-.238 1.741c.333.219.771.4 1.304.543a6.03 6.03 0 0 0 1.607.219h.001c.923 0 1.694-.209 2.313-.637.618-.409.932-1 .932-1.742zm4.721 5.891V.387h7.87v19.46h-7.87v.009zm7.042-5.891c0-.609-.161-1.056-.485-1.351s-.713-.495-1.189-.609a15.827 15.827 0 0 0-1.294-.269l-.114-.016c-.467-.077-.867-.2-1.19-.362s-.485-.447-.485-.857c0-.39.153-.675.467-.866s.704-.275 1.189-.275a3.3 3.3 0 0 1 1.57.38l.191 1.237.999-.123-.191-1.789c-.323-.2-.713-.361-1.18-.495s-.961-.209-1.494-.209h-.021a3.93 3.93 0 0 0-1.949.514l.019-.01c-.6.333-.895.904-.895 1.723 0 .6.162 1.037.485 1.313.323.285.723.475 1.209.59.293.077.779.18 1.268.269l.168.025c.476.076.876.209 1.199.381s.485.467.485.895c0 .438-.209.761-.628.971s-.895.314-1.437.314c-.609 0-1.18-.123-1.703-.38l.048-1.019-.961-.105-.238 1.741c.333.219.771.4 1.304.543a6.03 6.03 0 0 0 1.607.219h.001c.923 0 1.693-.209 2.313-.637.619-.409.932-1 .932-1.742zm4.72 5.891V.387h5.187v19.46h-5.187v.009zm.761-3.673h3.892v-.98h-1.341v-6.68h-2.579v.98h1.38v5.7h-1.342v.98h-.009zm1.218-11.21v1.57h1.313v-1.57h-1.313zm7.1 14.883V.387h8.289v19.46h-8.289v.009zm7.547-6.252-1.037-.229c-.229 1.295-.923 1.941-2.065 1.941-.761 0-1.341-.257-1.741-.771s-.599-1.237-.599-2.151c0-.828.181-1.532.533-2.122s.942-.875 1.761-.875c.628 0 1.18.143 1.637.428l.295 1.294.999-.123-.295-1.847a3.551 3.551 0 0 0-1.227-.618 5.29 5.29 0 0 0-1.353-.172h-.049.002c-1.189 0-2.093.419-2.683 1.256-.599.837-.895 1.789-.895 2.845 0 1.227.314 2.189.951 2.865.629.685 1.475 1.027 2.532 1.027s1.837-.295 2.331-.875c.495-.59.799-1.209.904-1.875zM5.413 30.486a2.293 2.293 0 0 1-.948.927l-.013.006c-.428.219-.933.333-1.523.333H1.226v-5.367h1.703c.59 0 1.104.105 1.523.323s.742.523.961.933c.219.409.323.875.323 1.427 0 .543-.105 1.019-.323 1.418zm-.942.105c.371-.361.552-.866.552-1.523s-.18-1.161-.552-1.523c-.371-.361-.904-.542-1.608-.542h-.961v4.13h.961c.704 0 1.237-.181 1.608-.543zm4.796-3.645v1.837h2.037v.533H9.267v1.874h2.266v.562h-2.96v-5.367h2.96v.561H9.266zm8.28 4.121c-.124.219-.305.399-.552.533s-.552.209-.923.209h-.029a2.31 2.31 0 0 1-.938-.197l.015.006a1.786 1.786 0 0 1-.664-.529l-.003-.004a1.564 1.564 0 0 1-.284-.764v-.006h.742c.019.152.067.304.152.447s.219.267.381.362c.162.095.362.143.6.143.304 0 .542-.076.704-.247a.87.87 0 0 0 .247-.629c0-.219-.057-.4-.171-.533s-.253-.243-.411-.32l-.008-.003a7.179 7.179 0 0 0-.685-.257 8.062 8.062 0 0 1-.871-.336l.053.022a1.314 1.314 0 0 1-.52-.443l-.003-.004c-.143-.2-.219-.457-.219-.78 0-.277.067-.524.2-.743.133-.209.323-.381.58-.495a2.12 2.12 0 0 1 .885-.171c.523 0 .952.123 1.256.38.315.257.486.581.543.981h-.742a1.03 1.03 0 0 0-.324-.561c-.18-.162-.419-.247-.723-.247-.276 0-.505.076-.667.219-.171.143-.247.352-.247.609 0 .21.057.381.161.505.114.133.247.229.409.305s.39.152.666.247c.343.114.619.219.837.323.209.105.39.257.533.457s.219.476.219.819c-.015.26-.087.5-.204.713l.004-.009zm3.712-4.682v5.367h-.695v-5.367h.695zm7.023.408c.429.314.713.733.857 1.266h-.733a1.61 1.61 0 0 0-.631-.776l-.006-.004c-.295-.2-.647-.295-1.056-.295-.361 0-.695.085-.98.257-.29.177-.523.422-.68.713l-.005.01a2.398 2.398 0 0 0-.247 1.113c0 .438.085.819.247 1.133.163.313.4.561.695.733s.637.257 1.028.257c.333 0 .628-.076.904-.209.277-.149.505-.359.671-.612l.004-.007c.181-.267.276-.59.314-.951h-2.113v-.513h2.693v.637c-.047.435-.19.829-.407 1.172l.007-.011c-.219.352-.513.619-.885.819s-.79.305-1.266.305c-.513 0-.971-.115-1.37-.343a2.342 2.342 0 0 1-.917-.958l-.006-.013c-.219-.409-.333-.885-.333-1.418s.115-1.009.333-1.418c.219-.409.533-.743.923-.971s.847-.352 1.361-.352c.647-.019 1.171.133 1.599.437zm7.985 4.958h-.695l-2.788-4.244v4.244h-.695v-5.367h.695l2.788 4.244v-4.244h.695v5.367zm10.01-.684c-.124.219-.305.399-.552.533s-.552.209-.923.209a2.32 2.32 0 0 1-.951-.191 1.786 1.786 0 0 1-.664-.529l-.003-.004a1.565 1.565 0 0 1-.285-.764l-.001-.006h.743c.019.152.067.304.152.447s.219.267.381.362.362.143.6.143c.304 0 .542-.076.704-.247a.875.875 0 0 0 .247-.629c0-.219-.057-.4-.171-.533s-.254-.243-.411-.32l-.008-.003a7.179 7.179 0 0 0-.685-.257 8.166 8.166 0 0 1-.872-.336l.053.022a1.314 1.314 0 0 1-.52-.443l-.003-.004c-.143-.2-.219-.457-.219-.78 0-.277.067-.524.2-.743.133-.209.323-.381.58-.495.248-.115.552-.171.885-.171.523 0 .952.123 1.256.38.314.257.485.581.543.981h-.743a1.029 1.029 0 0 0-.323-.561c-.181-.162-.419-.247-.723-.247-.276 0-.504.076-.666.219-.171.143-.247.352-.247.609 0 .21.057.381.162.505.113.133.247.229.409.305s.391.152.667.247c.343.114.619.219.837.323.209.105.39.257.533.457.142.2.218.476.218.819-.015.26-.087.501-.204.713l.004-.009zm6.309-4.682v.561h-1.513v4.806h-.704v-4.807h-1.513v-.561h3.731zm3.235 0V29.6c0 .523.114.913.352 1.171.238.247.552.381.971.381.409 0 .723-.123.952-.38s.343-.638.343-1.161v-3.217h.695v3.217c0 .733-.181 1.285-.543 1.647-.361.371-.847.551-1.456.551-.6 0-1.085-.181-1.447-.552s-.542-.913-.542-1.647v-3.216h.675v-.009zm10.478 4.101a2.29 2.29 0 0 1-.949.927l-.013.006c-.428.219-.933.333-1.523.333h-1.703v-5.367h1.703c.59 0 1.104.105 1.523.323s.742.523.961.933c.219.409.323.875.323 1.427 0 .543-.105 1.019-.323 1.418zm-.933.105c.371-.361.553-.866.553-1.523s-.181-1.161-.552-1.523c-.371-.361-.904-.542-1.609-.542h-.961v4.13h.961c.695 0 1.237-.181 1.609-.543zm4.797-4.206v5.367h-.695v-5.367h.695zm6.814.285c.4.238.714.561.943.98s.342.895.342 1.418-.114.999-.342 1.418a2.55 2.55 0 0 1-.931.974l-.012.006c-.399.238-.847.352-1.341.352s-.952-.114-1.351-.352a2.57 2.57 0 0 1-.945-.967l-.007-.013c-.228-.419-.343-.895-.343-1.418s.115-.999.343-1.418a2.51 2.51 0 0 1 .94-.974l.012-.006c.377-.221.83-.352 1.314-.352h.04-.002c.495 0 .942.113 1.341.352zm-2.341.552a1.713 1.713 0 0 0-.681.723l-.004.01a2.395 2.395 0 0 0-.247 1.113c0 .419.085.79.247 1.113s.39.561.685.733c.295.171.619.257.989.257.362 0 .695-.086.99-.257.295-.175.529-.424.681-.723l.005-.01c.161-.314.247-.685.247-1.104a2.41 2.41 0 0 0-.247-1.113 1.78 1.78 0 0 0-.677-.729l-.008-.004a1.9 1.9 0 0 0-.958-.256h-.033.002l-.066-.001c-.34 0-.659.092-.932.253l.009-.005z"/></symbol>

<symbol id="icon-call" viewBox="0 0 32 32">
<path fill="none" stroke="#cda274" stroke-miterlimit="10" stroke-width="1.882" d="M30.119 24.541c-1.149-1.158-3.934-2.849-5.285-3.529-1.76-.887-1.904-.96-3.288.068-.922.686-1.535 1.299-2.615 1.068s-3.426-1.528-5.48-3.576c-2.054-2.046-3.428-4.46-3.658-5.536s.392-1.682 1.071-2.606c.957-1.304.885-1.52.066-3.279-.637-1.368-2.377-4.127-3.54-5.271C6.145.65 6.145.868 5.345 1.201c-.72.306-1.335.64-1.913 1.024l.043-.027c-1.159.768-1.801 1.407-2.252 2.368-.448.961-.649 3.213 1.672 7.432s3.951 6.375 7.322 9.736 5.964 5.17 9.754 7.295c4.689 2.626 6.488 2.114 7.451 1.666.963-.45 1.606-1.087 2.376-2.245a11.52 11.52 0 0 0 1-1.868c.333-.798.551-.798-.68-2.042z" style="stroke:var(--color3, #cda274)"/></symbol>

<symbol id="icon-logo" viewBox="0 0 32 32"><path fill="#cda274" d="M0 32h12.667v-8.942a3.43 3.43 0 0 1 3.43-3.43h.001a3.43 3.43 0 0 1 3.43 3.43V32h12.471V0C14.326 0 .001 14.326.001 32z" style="fill:var(--color3, #cda274)"/></symbol>

<symbol id="icon-search" viewBox="0 0 31 32">
<path stroke-linecap="round" stroke-linejoin="round" stroke-width="2" d="M22.245 22.912 29.332 30m-3.499-15.751.001.128c0 6.766-5.485 12.251-12.251 12.251S1.332 21.143 1.332 14.377l.001-.135v.007c.072-6.711 5.529-12.123 12.25-12.123s12.178 5.412 12.25 12.116v.007z"/></symbol>

<symbol id="icon-arrow" viewBox="0 0 36 32">
<path fill="none" stroke="#cda274" stroke-linecap="square" stroke-linejoin="round" stroke-width="3.765" d="m3.765 15.878 25.832-.254m-9.61-12.029 12.279 12.279-12.525 12.527" style="stroke:var(--color3, #cda274)"/></symbol>

<symbol id="icon-right" viewBox="0 0 16 32">
<path stroke-linecap="round" stroke-linejoin="round" stroke-width="3.2" d="M1.6 30.4 14.4 16 1.6 1.6"/></symbol>

<symbol id="icon-instagram" viewBox="0 0 32 32">
    <path d="M31.968 9.408c-.074-1.7-.35-2.87-.744-3.882a7.844 7.844 0 0 0-1.849-2.839l-.001-.001A7.898 7.898 0 0 0 26.596.862l-.054-.018c-1.02-.394-2.18-.67-3.88-.744C20.946.02 20.4 0 16.06 0c-4.346 0-4.89.02-6.596.094-1.7.074-2.868.35-3.88.744a7.844 7.844 0 0 0-2.839 1.849l-.001.001A7.89 7.89 0 0 0 .918 5.466L.9 5.52C.506 6.54.232 7.7.156 9.4c-.08 1.714-.1 2.26-.1 6.602 0 4.346.02 4.89.094 6.596.074 1.7.35 2.87.744 3.882a7.886 7.886 0 0 0 1.85 2.838c.8.812 1.77 1.444 2.832 1.844 1.02.394 2.18.67 3.882.744 1.706.076 2.25.094 6.596.094 4.344 0 4.888-.02 6.594-.094 1.7-.074 2.87-.35 3.882-.744a8.233 8.233 0 0 0 4.663-4.627l.019-.055c.394-1.02.67-2.18.744-3.882.076-1.706.094-2.25.094-6.596 0-4.344-.006-4.888-.08-6.594zm-2.88 13.064c-.07 1.564-.332 2.408-.552 2.97a5.34 5.34 0 0 1-3.002 3.027l-.036.013c-.562.218-1.412.48-2.968.548-1.688.076-2.194.094-6.464.094s-4.782-.02-6.464-.094c-1.564-.068-2.408-.33-2.97-.55a4.947 4.947 0 0 1-1.837-1.193l-.001-.001a5.001 5.001 0 0 1-1.183-1.804l-.011-.034c-.22-.562-.48-1.412-.55-2.968-.074-1.688-.094-2.196-.094-6.464 0-4.27.02-4.782.094-6.464.07-1.564.332-2.408.55-2.97a4.888 4.888 0 0 1 1.2-1.838A4.96 4.96 0 0 1 6.64 3.55c.56-.22 1.412-.48 2.968-.55 1.688-.074 2.194-.094 6.464-.094 4.276 0 4.78.02 6.464.094 1.562.07 2.406.332 2.968.55a4.929 4.929 0 0 1 1.84 1.194 4.98 4.98 0 0 1 1.192 1.84c.22.56.482 1.41.55 2.968.076 1.688.094 2.194.094 6.464s-.018 4.77-.092 6.456z" />
    <path  d="M16.06 7.782a8.222 8.222 0 0 0-.01 16.44h.009a8.222 8.222 0 0 0 .01-16.44h-.009zm0 13.554a5.334 5.334 0 1 1 0-10.668 5.334 5.334 0 1 1 0 10.668zM26.524 7.458a1.92 1.92 0 0 1-3.84 0 1.92 1.92 0 0 1 3.84 0z"/>
</symbol>

<symbol id="icon-linkedin" viewBox="0 0 32 32">
    <path d="M31.992 32H32V20.26c0-5.74-1.236-10.164-7.948-10.164-3.226 0-5.392 1.772-6.276 3.45h-.094v-2.912H11.32V32h6.628V21.42c0-2.784.528-5.476 3.976-5.476 3.4 0 3.45 3.178 3.45 5.656V32h6.62zM.528 10.636h6.634V32H.528V10.636zM3.842 0C1.722 0 .002 1.72.002 3.84s1.72 3.88 3.84 3.88c2.122 0 3.844-1.76 3.844-3.88S5.96 0 3.84 0z"/>
</symbol>

<symbol id="icon-twitter" viewBox="0 0 32 32">
    <path  d="M32 6.078c-1.1.494-2.376.858-3.712 1.029l-.068.007a6.56 6.56 0 0 0 2.873-3.58l.013-.046a12.858 12.858 0 0 1-4.076 1.574l-.084.014A6.56 6.56 0 0 0 15.598 9.56c0 .52.044 1.02.152 1.496A18.554 18.554 0 0 1 2.255 4.228l-.027-.034a6.496 6.496 0 0 0-.895 3.311 6.562 6.562 0 0 0 2.888 5.442l.023.015a6.465 6.465 0 0 1-2.997-.823l.033.017v.072a6.592 6.592 0 0 0 5.213 6.438l.043.008a6.408 6.408 0 0 1-1.669.216h-.054.003a5.842 5.842 0 0 1-1.279-.118l.037.006c.873 2.624 3.273 4.496 6.121 4.57h.009a13.098 13.098 0 0 1-8.12 2.798h-.015.001c-.538 0-1.054-.024-1.57-.09C2.826 27.902 6.287 29 10.004 29h.063-.003c12.072 0 18.672-10 18.672-18.668 0-.29-.01-.57-.024-.848a13.186 13.186 0 0 0 3.258-3.359l.03-.047z"/>
</symbol>

<symbol id="icon-facebook" viewBox="0 0 17 32">
<path d="m15.412 18.257.83-5.447H10.97V9.258c0-1.539.712-2.961 3.08-2.961h2.427V1.62s-2.189-.414-4.263-.414c-4.322 0-7.165 2.664-7.165 7.4v4.204H.193v5.448H5.05v13.263h5.922V18.256h4.436z"/>
</symbol>
<symbol id="icon-Logo-interno" viewBox="0 0 33 32">
<path fill="#cda274" style="fill: var(--color1, #cda274)" d="M0.471 32h12.667v-8.941c0-0 0-0.001 0-0.001 0-1.894 1.536-3.43 3.43-3.43 0 0 0.001 0 0.001 0h-0c1.894 0 3.43 1.535 3.43 3.43 0 0 0 0.001 0 0.001v-0 8.941h12.471v-32c-17.673 0-31.998 14.326-31.998 32z"></path>
</symbol>
</defs>
</svg>